<svg width="13" height="14" viewBox="0 0 13 14" fill="none" xmlns="http://www.w3.org/2000/svg">
<path d="M5.85417 13.1832C5.67091 13.3406 5.40612 13.3422 5.22233 13.1998L5.14909 13.1305L0.141278 7.29847C0.139456 7.29634 0.138175 7.29378 0.136395 7.29163C0.119502 7.27129 0.105644 7.24945 0.0924496 7.22718C0.0894364 7.22212 0.0855018 7.21766 0.082684 7.21253C0.069424 7.18821 0.0584281 7.1632 0.0494809 7.13733C0.0477759 7.13246 0.0461465 7.1276 0.0445981 7.12268C0.0378083 7.10089 0.0336988 7.0787 0.0299496 7.05628C0.0280549 7.04515 0.0252279 7.03427 0.0240902 7.02308C0.0224531 7.00649 0.0230978 6.98995 0.0231137 6.97327C0.023084 6.95692 0.0225304 6.94071 0.0240902 6.92444C0.0251968 6.91324 0.0280854 6.90237 0.0299496 6.89124C0.033639 6.86879 0.0378628 6.84666 0.044598 6.82483C0.0462582 6.81952 0.0486142 6.81448 0.0504574 6.80921C0.0591329 6.78411 0.0689722 6.75961 0.0817074 6.73597C0.0859605 6.72812 0.0916481 6.72117 0.0963558 6.71351C0.108648 6.69338 0.121045 6.67342 0.136395 6.65491C0.138297 6.65262 0.139328 6.64937 0.141278 6.6471L5.14909 0.815067L5.22233 0.745731C5.40603 0.603504 5.67094 0.605243 5.85417 0.762333C6.03711 0.919806 6.07851 1.18133 5.9655 1.3844L5.9069 1.46741L3.403 4.38245L1.17936 6.97327L3.403 9.56311L5.9069 12.4782L5.9655 12.5612C6.07866 12.7643 6.03718 13.0257 5.85417 13.1832Z" fill="#666666"/>
<path d="M12.1623 13.2091C11.9546 13.3909 11.6391 13.3698 11.4572 13.1622L8.95327 10.3058L6.44936 7.44833C6.44567 7.44411 6.44312 7.43897 6.43959 7.43466C6.42912 7.42187 6.4203 7.40819 6.41127 7.39462C6.40101 7.37922 6.39131 7.36391 6.38295 7.34775C6.37737 7.33692 6.37306 7.32568 6.36831 7.31454C6.36054 7.29636 6.35232 7.27863 6.34682 7.25985C6.34296 7.24669 6.3408 7.23321 6.33803 7.21982C6.3341 7.20065 6.33091 7.1816 6.32924 7.1622C6.32799 7.14787 6.32829 7.13362 6.32827 7.11923C6.32827 7.10484 6.32801 7.09059 6.32924 7.07626C6.33088 7.05685 6.33413 7.03782 6.33803 7.01864C6.34078 7.00524 6.34298 6.99178 6.34682 6.9786C6.35229 6.95981 6.36056 6.94212 6.36831 6.92392C6.37305 6.91276 6.37738 6.90156 6.38295 6.89071C6.39129 6.87453 6.40102 6.85926 6.41127 6.84384C6.42029 6.83024 6.42913 6.81661 6.43959 6.8038C6.44327 6.79929 6.4455 6.79356 6.44936 6.78915L8.95327 3.93173L11.4572 1.07528C11.6391 0.867713 11.9546 0.84672 12.1623 1.02841C12.3699 1.21034 12.3909 1.5258 12.2091 1.73349L7.49038 7.11923L12.2091 12.504C12.3909 12.7117 12.3699 13.0271 12.1623 13.2091Z" fill="#666666"/>
</svg>
