<svg width="23" height="21" viewBox="0 0 23 21" fill="none" xmlns="http://www.w3.org/2000/svg">
<path d="M16.6875 1.21289L16.6875 0.812891H16.6875V1.21289ZM20.417 2.73438L20.6764 2.42992L20.6764 2.4299L20.417 2.73438ZM22.4678 7.03809L22.8678 7.0381V7.03808L22.4678 7.03809ZM21.2529 10.5479L21.5898 10.7636L21.5898 10.7636L21.2529 10.5479ZM18.3398 13.9756L18.6189 14.2621L18.6189 14.2621L18.3398 13.9756ZM14.8066 17.0977L15.062 17.4056H15.062L14.8066 17.0977ZM11.7285 19.6768L11.9932 19.9767L11.9951 19.975L11.7285 19.6768ZM11.6953 19.7061L11.4307 20.006L11.6953 20.2395L11.96 20.006L11.6953 19.7061ZM11.6621 19.6768L11.3955 19.975L11.3975 19.9767L11.6621 19.6768ZM8.58398 17.0977L8.32864 17.4056L8.58398 17.0977ZM5.05078 13.9756L4.77168 14.2621L4.77168 14.2621L5.05078 13.9756ZM2.1377 10.5479L1.80086 10.7636L1.80087 10.7636L2.1377 10.5479ZM0.922852 7.03809L0.522852 7.03808V7.0381L0.922852 7.03809ZM2.97363 2.73438L2.71421 2.4299L2.7142 2.42992L2.97363 2.73438ZM6.70312 1.21289L6.70313 0.812891H6.70307L6.70312 1.21289ZM10.2705 2.45215L10.5167 2.13687L10.5166 2.13685L10.2705 2.45215ZM11.6953 4.40137L11.3064 4.49492L12.0842 4.49492L11.6953 4.40137ZM13.1201 2.45215L12.874 2.13685L12.8739 2.13687L13.1201 2.45215ZM16.6875 1.3125L16.6876 0.9125H16.6875V1.3125ZM13.1816 2.53027L12.9355 2.21497L12.9355 2.21498L13.1816 2.53027ZM11.7451 4.79102V5.19102H12.145L12.1451 4.79111L11.7451 4.79102ZM11.6455 4.79102L11.246 4.81173L11.2657 5.19102H11.6455V4.79102ZM11.6387 4.65918L12.0381 4.63847L12.0377 4.63007L12.0369 4.62169L11.6387 4.65918ZM10.209 2.53027L10.4551 2.21498L10.4551 2.21497L10.209 2.53027ZM6.70312 1.3125L6.70313 0.9125H6.70307L6.70312 1.3125ZM3.03906 2.81055L2.77965 2.50607L2.77964 2.50608L3.03906 2.81055ZM1.02246 7.03809L0.622461 7.03808V7.0381L1.02246 7.03809ZM2.22266 10.4932L1.88582 10.7089L1.88583 10.7089L2.22266 10.4932ZM5.12109 13.9043L4.84199 14.1908L4.842 14.1908L5.12109 13.9043ZM8.64746 17.0205L8.39212 17.3284L8.39212 17.3284L8.64746 17.0205ZM11.6953 19.5723L11.4292 19.8709L11.6953 20.108L11.9614 19.8709L11.6953 19.5723ZM14.7432 17.0205L14.9985 17.3284V17.3284L14.7432 17.0205ZM18.2695 13.9043L18.5486 14.1908V14.1908L18.2695 13.9043ZM21.1689 10.4932L21.5058 10.7089L21.5058 10.7089L21.1689 10.4932ZM22.3682 7.03809L22.7682 7.0381V7.03808L22.3682 7.03809ZM20.3525 2.81055L20.612 2.5061L20.612 2.50608L20.3525 2.81055ZM16.6875 1.21289L16.6875 1.61289C17.7016 1.61302 19.056 2.10023 20.1576 3.03885L20.417 2.73438L20.6764 2.4299C19.4522 1.38682 17.919 0.813042 16.6875 0.812891L16.6875 1.21289ZM20.417 2.73438L20.1576 3.03883C21.2507 3.97032 22.0678 5.32233 22.0678 7.03809L22.4678 7.03809L22.8678 7.03808C22.8678 5.0441 21.9116 3.48243 20.6764 2.42992L20.417 2.73438ZM22.4678 7.03809L22.0678 7.03807C22.0677 8.09013 21.6423 9.1983 20.9161 10.3321L21.2529 10.5479L21.5898 10.7636C22.3594 9.56195 22.8677 8.30219 22.8678 7.0381L22.4678 7.03809ZM21.2529 10.5479L20.9161 10.3321C20.1913 11.4637 19.1837 12.5952 18.0607 13.6891L18.3398 13.9756L18.6189 14.2621C19.7629 13.1478 20.8184 11.9678 21.5898 10.7636L21.2529 10.5479ZM18.3398 13.9756L18.0607 13.689C16.9388 14.7819 15.7109 15.8281 14.5513 16.7898L14.8066 17.0977L15.062 17.4056C16.2253 16.4408 17.4733 15.378 18.6189 14.2621L18.3398 13.9756ZM14.8066 17.0977L14.5513 16.7898C13.3969 17.7471 12.3003 18.629 11.4619 19.3786L11.7285 19.6768L11.9951 19.975C12.8187 19.2386 13.8921 18.3758 15.062 17.4056L14.8066 17.0977ZM11.7285 19.6768L11.4639 19.3768L11.4307 19.4061L11.6953 19.7061L11.96 20.006L11.9932 19.9767L11.7285 19.6768ZM11.6953 19.7061L11.96 19.4061L11.9268 19.3768L11.6621 19.6768L11.3975 19.9767L11.4307 20.006L11.6953 19.7061ZM11.6621 19.6768L11.9287 19.3786C11.0903 18.629 9.99374 17.7471 8.83933 16.7898L8.58398 17.0977L8.32864 17.4056C9.49855 18.3758 10.5719 19.2386 11.3955 19.975L11.6621 19.6768ZM8.58398 17.0977L8.83933 16.7898C7.67974 15.8281 6.45182 14.7819 5.32988 13.689L5.05078 13.9756L4.77168 14.2621C5.91735 15.378 7.16536 16.4408 8.32864 17.4056L8.58398 17.0977ZM5.05078 13.9756L5.32989 13.6891C4.20695 12.5952 3.19932 11.4637 2.47452 10.3321L2.1377 10.5479L1.80087 10.7636C2.5722 11.9678 3.62773 13.1478 4.77168 14.2621L5.05078 13.9756ZM2.1377 10.5479L2.47453 10.3321C1.74832 9.1983 1.32289 8.09013 1.32285 7.03807L0.922852 7.03809L0.522852 7.0381C0.522903 8.30219 1.03121 9.56195 1.80086 10.7636L2.1377 10.5479ZM0.922852 7.03809L1.32285 7.03809C1.32287 5.32233 2.13992 3.97032 3.23307 3.03883L2.97363 2.73438L2.7142 2.42992C1.47903 3.48243 0.522867 5.0441 0.522852 7.03808L0.922852 7.03809ZM2.97363 2.73438L3.23305 3.03885C4.33466 2.10024 5.68901 1.61302 6.70318 1.61289L6.70312 1.21289L6.70307 0.812891C5.47164 0.813051 3.93844 1.38682 2.71421 2.4299L2.97363 2.73438ZM6.70312 1.21289L6.70312 1.61289C8.00215 1.6129 9.17666 2.10568 10.0244 2.76745L10.2705 2.45215L10.5166 2.13685C9.5465 1.37949 8.20231 0.812897 6.70313 0.812891L6.70312 1.21289ZM10.2705 2.45215L10.0243 2.76743C10.7321 3.32005 11.1789 3.96487 11.3064 4.49492L11.6953 4.40137L12.0842 4.30782C11.9004 3.54354 11.3111 2.75713 10.5167 2.13687L10.2705 2.45215ZM11.6953 4.40137L12.0842 4.49492C12.2117 3.96487 12.6585 3.32005 13.3663 2.76743L13.1201 2.45215L12.8739 2.13687C12.0796 2.75714 11.4902 3.54354 11.3064 4.30782L11.6953 4.40137ZM13.1201 2.45215L13.3663 2.76745C14.214 2.10567 15.3885 1.61289 16.6875 1.61289V1.21289V0.812891C15.1883 0.812891 13.8441 1.37949 12.874 2.13685L13.1201 2.45215ZM16.6875 1.3125V0.9125C15.2134 0.9125 13.8904 1.46951 12.9355 2.21497L13.1816 2.53027L13.4278 2.84557C14.2601 2.19579 15.4134 1.7125 16.6875 1.7125V1.3125ZM13.1816 2.53027L12.9355 2.21498C11.999 2.94608 11.3453 3.9188 11.3451 4.79093L11.7451 4.79102L12.1451 4.79111C12.1452 4.2801 12.5721 3.51359 13.4278 2.84557L13.1816 2.53027ZM11.7451 4.79102V4.39102H11.6455V4.79102V5.19102H11.7451V4.79102ZM11.6455 4.79102L12.045 4.7703L12.0381 4.63847L11.6387 4.65918L11.2392 4.67989L11.246 4.81173L11.6455 4.79102ZM11.6387 4.65918L12.0369 4.62169C11.9595 3.79902 11.338 2.90421 10.4551 2.21498L10.209 2.53027L9.96284 2.84557C10.76 3.46788 11.1921 4.18368 11.2404 4.69667L11.6387 4.65918ZM10.209 2.53027L10.4551 2.21497C9.50021 1.46952 8.1772 0.912507 6.70313 0.9125L6.70312 1.3125L6.70312 1.7125C7.97718 1.71251 9.13049 2.1958 9.96284 2.84557L10.209 2.53027ZM6.70312 1.3125L6.70307 0.9125C5.49872 0.912661 3.98842 1.47622 2.77965 2.50607L3.03906 2.81055L3.29847 3.11502C4.38484 2.18945 5.71633 1.71263 6.70318 1.7125L6.70312 1.3125ZM3.03906 2.81055L2.77964 2.50608C1.56223 3.54338 0.622477 5.07866 0.622461 7.03808L1.02246 7.03809L1.42246 7.03809C1.42247 5.35713 2.22292 4.03146 3.29849 3.11501L3.03906 2.81055ZM1.02246 7.03809L0.622461 7.0381C0.622513 8.27586 1.12182 9.51605 1.88582 10.7089L2.22266 10.4932L2.55949 10.2774C1.83854 9.1518 1.4225 8.06332 1.42246 7.03807L1.02246 7.03809ZM2.22266 10.4932L1.88583 10.7089C2.65138 11.9041 3.70036 13.0788 4.84199 14.1908L5.12109 13.9043L5.40019 13.6178C4.27986 12.5265 3.27864 11.4002 2.55948 10.2774L2.22266 10.4932ZM5.12109 13.9043L4.842 14.1908C5.98458 15.3037 7.22934 16.3641 8.39212 17.3284L8.64746 17.0205L8.9028 16.7126C7.74379 15.7514 6.51909 14.7076 5.40019 13.6178L5.12109 13.9043ZM8.64746 17.0205L8.39212 17.3284C9.54459 18.2842 10.6078 19.1391 11.4292 19.8709L11.6953 19.5723L11.9614 19.2736C11.1259 18.5292 10.0401 17.6557 8.9028 16.7126L8.64746 17.0205ZM11.6953 19.5723L11.9614 19.8709C12.7828 19.1391 13.846 18.2842 14.9985 17.3284L14.7432 17.0205L14.4878 16.7126C13.3505 17.6558 12.2647 18.5292 11.4292 19.2736L11.6953 19.5723ZM14.7432 17.0205L14.9985 17.3284C16.1613 16.3641 17.406 15.3038 18.5486 14.1908L18.2695 13.9043L17.9904 13.6178C16.8715 14.7076 15.6468 15.7514 14.4878 16.7126L14.7432 17.0205ZM18.2695 13.9043L18.5486 14.1908C19.6902 13.0789 20.7402 11.9042 21.5058 10.7089L21.1689 10.4932L20.8321 10.2774C20.113 11.4001 19.1109 12.5264 17.9904 13.6178L18.2695 13.9043ZM21.1689 10.4932L21.5058 10.7089C22.2697 9.51599 22.7681 8.27556 22.7682 7.0381L22.3682 7.03809L21.9682 7.03807C21.9681 8.06334 21.5528 9.15214 20.8321 10.2774L21.1689 10.4932ZM22.3682 7.03809L22.7682 7.03808C22.7681 5.07903 21.8293 3.54348 20.612 2.5061L20.3525 2.81055L20.0931 3.11499C21.1684 4.03134 21.9682 5.35724 21.9682 7.03809L22.3682 7.03809ZM20.3525 2.81055L20.612 2.50608C19.4031 1.47608 17.8919 0.912652 16.6876 0.9125L16.6875 1.3125L16.6874 1.7125C17.6744 1.71262 19.0068 2.18943 20.0931 3.11502L20.3525 2.81055Z" fill="black"/>
</svg>
