<svg width="13" height="14" viewBox="0 0 13 14" fill="none" xmlns="http://www.w3.org/2000/svg">
<path d="M7.1456 0.817062C7.32885 0.659687 7.59363 0.658104 7.77743 0.80046L7.85067 0.869796L12.8585 6.70183C12.8592 6.70271 12.8597 6.70387 12.8604 6.70476C12.8795 6.72727 12.8958 6.75113 12.9102 6.77605C12.9124 6.77972 12.915 6.78308 12.9171 6.78679C12.9305 6.81136 12.9412 6.8368 12.9503 6.86296C12.952 6.86784 12.9536 6.87269 12.9552 6.87761C12.9632 6.90359 12.969 6.92988 12.9727 6.95671C12.9735 6.96196 12.9751 6.96707 12.9757 6.97234C12.9776 6.99053 12.9767 7.00871 12.9767 7.02702C12.9767 7.04501 12.9776 7.06286 12.9757 7.08073C12.9751 7.086 12.9735 7.0911 12.9727 7.09636C12.969 7.12321 12.9632 7.14946 12.9552 7.17546C12.9536 7.18038 12.952 7.18522 12.9503 7.19011C12.9414 7.21603 12.9303 7.24093 12.9171 7.2653C12.9141 7.27069 12.9105 7.27562 12.9073 7.28093C12.8941 7.30318 12.8793 7.32409 12.8624 7.34441C12.8606 7.34658 12.8603 7.35006 12.8585 7.35222L7.85067 13.1842L7.77743 13.2536C7.59363 13.3959 7.32885 13.3944 7.1456 13.237C6.96273 13.0794 6.92114 12.8179 7.03427 12.6149L7.09286 12.5319L9.59677 9.61687L11.8204 7.02702L9.59677 4.43718L7.09286 1.52214L7.03427 1.43913C6.92116 1.23613 6.96281 0.974614 7.1456 0.817062Z" fill="#666666"/>
<path d="M0.837146 0.790276C1.04467 0.608616 1.36023 0.629974 1.54222 0.837151L4.04613 3.6936L6.55004 6.55102C6.55468 6.55632 6.55835 6.56316 6.56273 6.5686C6.57132 6.57925 6.57858 6.59061 6.58617 6.6018C6.59692 6.61762 6.60772 6.633 6.61644 6.64965C6.6242 6.6645 6.62979 6.68012 6.63597 6.69555C6.64158 6.70953 6.64731 6.72322 6.6516 6.73754C6.65651 6.75391 6.65913 6.77062 6.66234 6.78735C6.6652 6.80238 6.66868 6.81709 6.67015 6.83227C6.67176 6.84855 6.67111 6.86473 6.67113 6.8811C6.67112 6.89713 6.6717 6.91299 6.67015 6.92895C6.66865 6.94477 6.66535 6.96016 6.66234 6.97582C6.65923 6.99193 6.65629 7.0079 6.6516 7.02367C6.64734 7.03801 6.64156 7.05166 6.63597 7.06567C6.62965 7.08153 6.62345 7.09729 6.61547 7.11254C6.60767 7.12739 6.59851 7.14131 6.5891 7.15551C6.57998 7.16929 6.5704 7.18257 6.5598 7.19555C6.55607 7.20012 6.55395 7.2067 6.55004 7.21117L4.04613 10.0686L1.54222 12.925C1.36023 13.1323 1.0447 13.1536 0.837146 12.9719C0.629756 12.7901 0.608878 12.4745 0.790271 12.2668L5.50902 6.8811L0.790271 1.49535C0.608923 1.28768 0.629724 0.972081 0.837146 0.790276Z" fill="#666666"/>
</svg>
