<svg width="6" height="14" viewBox="0 0 6 14" fill="none" xmlns="http://www.w3.org/2000/svg">
<path d="M0.173732 0.788238C0.356988 0.630863 0.621765 0.62928 0.805568 0.771636L0.87881 0.840972L5.88662 6.673C5.88738 6.67389 5.88782 6.67504 5.88858 6.67593C5.90765 6.69845 5.9239 6.7223 5.93838 6.74722C5.94053 6.7509 5.94317 6.75425 5.94522 6.75796C5.95866 6.78254 5.96938 6.80798 5.97842 6.83414C5.98012 6.83902 5.98175 6.84387 5.9833 6.84878C5.99139 6.87477 5.99712 6.90105 6.00088 6.92789C6.00163 6.93314 6.00323 6.93824 6.00381 6.94351C6.00577 6.9617 6.00482 6.97989 6.00479 6.9982C6.00481 7.01618 6.00571 7.03404 6.00381 7.05191C6.00323 7.05718 6.00162 7.06228 6.00088 7.06753C5.99716 7.09438 5.99135 7.12063 5.9833 7.14664C5.98176 7.15156 5.98012 7.1564 5.97842 7.16128C5.96951 7.1872 5.95845 7.21211 5.94522 7.23648C5.94227 7.24187 5.93861 7.2468 5.93545 7.2521C5.92227 7.27435 5.9074 7.29527 5.89053 7.31558C5.88872 7.31776 5.88847 7.32124 5.88662 7.32339L0.87881 13.1554L0.805568 13.2248C0.621765 13.3671 0.356988 13.3655 0.173732 13.2082C-0.00912948 13.0506 -0.0507214 12.7891 0.0624038 12.5861L0.120998 12.5031L2.6249 9.58804L4.84854 6.9982L2.6249 4.40835L0.120998 1.49332L0.0624038 1.41031C-0.0507032 1.20731 -0.00905426 0.94579 0.173732 0.788238Z" fill="#666666"/>
</svg>
