<svg width="6" height="14" viewBox="0 0 6 14" fill="none" xmlns="http://www.w3.org/2000/svg">
<path d="M5.82597 13.2121C5.64272 13.3694 5.37792 13.371 5.19413 13.2287L5.12089 13.1593L0.11308 7.32731C0.111258 7.32518 0.109977 7.32261 0.108197 7.32047C0.0913038 7.30013 0.0774459 7.27829 0.0642514 7.25602C0.0612381 7.25096 0.0573035 7.2465 0.0544858 7.24137C0.0412255 7.21705 0.0302301 7.19204 0.0212826 7.16617C0.0195777 7.1613 0.0179483 7.15644 0.0163998 7.15152C0.00960983 7.12973 0.00550078 7.10754 0.00175137 7.08512C-0.000143406 7.07399 -0.00297035 7.06311 -0.004108 7.05191C-0.00574532 7.03533 -0.00510022 7.01878 -0.00508457 7.00211C-0.00511425 6.98576 -0.00566786 6.96955 -0.00410801 6.95328C-0.00300153 6.94208 -0.000112705 6.93121 0.00175136 6.92008C0.00544078 6.89763 0.00966459 6.8755 0.0163998 6.85367C0.0180599 6.84836 0.020416 6.84332 0.0222592 6.83805C0.0309347 6.81295 0.040774 6.78845 0.0535092 6.76481C0.0577623 6.75696 0.0634498 6.75001 0.0681576 6.74234C0.0804494 6.72222 0.0928466 6.70225 0.108197 6.68375C0.1101 6.68145 0.111129 6.67821 0.113079 6.67594L5.12089 0.843906L5.19413 0.77457C5.37783 0.632341 5.64274 0.634078 5.82597 0.791172C6.00891 0.948647 6.05031 1.21017 5.9373 1.41324L5.8787 1.49625L3.3748 4.41129L1.15117 7.00211L3.3748 9.59195L5.8787 12.507L5.9373 12.59C6.05046 12.7931 6.00898 13.0545 5.82597 13.2121Z" fill="#666666"/>
</svg>
