<svg width="20" height="21" viewBox="0 0 20 21" fill="none" xmlns="http://www.w3.org/2000/svg">
<path d="M9.29688 0.580444C13.9688 0.817146 17.6844 4.67983 17.6846 9.41052L17.6729 9.8656C17.5658 11.9773 16.7159 13.8917 15.3818 15.3578L19.5381 19.514C19.7475 19.724 19.7477 20.0639 19.5381 20.2738C19.3281 20.4838 18.9873 20.4838 18.7773 20.2738L14.6123 16.1088C13.0634 17.4444 11.0474 18.2533 8.8418 18.2533L8.38672 18.2416C3.86566 18.0122 0.24085 14.3867 0.0117188 9.8656L0 9.41052C0.000166468 4.52741 3.95868 0.568892 8.8418 0.568726L9.29688 0.580444ZM8.8418 1.36853C4.40051 1.3687 0.799971 4.96923 0.799805 9.41052C0.799883 13.8519 4.40045 17.4523 8.8418 17.4525C13.2833 17.4525 16.8837 13.852 16.8838 9.41052C16.8836 4.96913 13.2832 1.36853 8.8418 1.36853Z" fill="black"/>
</svg>
