<svg width="16" height="17" viewBox="0 0 16 17" fill="none" xmlns="http://www.w3.org/2000/svg">
<path d="M7.99998 14.5C8.73953 14.5 9.43242 14.3609 10.0786 14.0827C10.7249 13.8045 11.2898 13.4236 11.7733 12.94C12.2569 12.4565 12.6378 11.8916 12.916 11.2453C13.1942 10.5991 13.3333 9.90623 13.3333 9.16668H12.6666C12.6666 10.4667 12.2138 11.5696 11.308 12.4753C10.4022 13.3811 9.29954 13.8338 7.99998 13.8333C6.70042 13.8329 5.59754 13.3802 4.69131 12.4753C3.78509 11.5705 3.33242 10.4676 3.33331 9.16668C3.3342 7.86579 3.78687 6.76312 4.69131 5.85868C5.59576 4.95423 6.69865 4.50134 7.99998 4.50001H8.25331L7.16931 5.58468L7.64131 6.06468L9.53865 4.15334L7.61531 2.24268L7.14331 2.72268L8.25398 3.83334H7.99998C7.26042 3.83334 6.56753 3.97245 5.92131 4.25068C5.27509 4.5289 4.7102 4.90979 4.22665 5.39334C3.74309 5.8769 3.3622 6.44179 3.08398 7.08801C2.80576 7.73423 2.66665 8.42712 2.66665 9.16668C2.66665 9.90623 2.80576 10.5991 3.08398 11.2453C3.3622 11.8916 3.74309 12.4567 4.22665 12.9407C4.7102 13.4247 5.27509 13.8053 5.92131 14.0827C6.56753 14.36 7.26042 14.4991 7.99998 14.5Z" fill="black"/>
</svg>
