<svg width="18" height="18" viewBox="0 0 18 18" fill="none" xmlns="http://www.w3.org/2000/svg">
<path d="M8.07349 0.0366211C12.4918 0.0366211 16.0735 3.61834 16.0735 8.03662C16.0735 10.0354 15.3381 11.861 14.1262 13.2632C14.1503 13.2809 14.1747 13.299 14.1965 13.3208L17.8264 16.9507C18.058 17.1824 18.0581 17.5579 17.8264 17.7896C17.5948 18.0212 17.2192 18.0211 16.9875 17.7896L13.3577 14.1597C13.3359 14.1379 13.3177 14.1134 13.3 14.0894C11.8978 15.3012 10.0723 16.0366 8.07349 16.0366C3.65521 16.0366 0.0734863 12.4549 0.0734863 8.03662C0.0734863 3.61834 3.65521 0.0366211 8.07349 0.0366211ZM8.07349 1.03662C4.20749 1.03662 1.07349 4.17063 1.07349 8.03662C1.07349 11.9026 4.20749 15.0366 8.07349 15.0366C11.9395 15.0366 15.0735 11.9026 15.0735 8.03662C15.0735 4.17063 11.9395 1.03662 8.07349 1.03662Z" fill="#666666"/>
</svg>
