<svg width="20" height="21" viewBox="0 0 20 21" fill="none" xmlns="http://www.w3.org/2000/svg">
<path d="M9.99984 12.1667C11.8382 12.1667 13.3332 10.6717 13.3332 8.83333C13.3332 6.995 11.8382 5.5 9.99984 5.5C8.1615 5.5 6.6665 6.995 6.6665 8.83333C6.6665 10.6717 8.1615 12.1667 9.99984 12.1667ZM9.99984 7.16667C10.919 7.16667 11.6665 7.91417 11.6665 8.83333C11.6665 9.7525 10.919 10.5 9.99984 10.5C9.08067 10.5 8.33317 9.7525 8.33317 8.83333C8.33317 7.91417 9.08067 7.16667 9.99984 7.16667Z" fill="black"/>
<path d="M10.0005 2.6665C13.4001 2.66664 16.1665 5.43389 16.1665 8.8335V8.83545C16.1778 11.3389 14.7895 13.6401 13.3003 15.3755C11.8202 17.1002 10.3042 18.1927 10.1948 18.27L10.1938 18.271C10.1375 18.3111 10.0697 18.3325 10.0005 18.3325C9.93128 18.3325 9.86354 18.3111 9.80713 18.271L9.80518 18.27L9.48291 18.0278C8.94131 17.6072 7.81098 16.6687 6.70068 15.3745C5.21162 13.6387 3.82233 11.337 3.8335 8.83154V8.82861C3.83371 5.43347 6.60072 2.6665 10.0005 2.6665ZM10.0005 3.3335C6.96771 3.3335 4.5019 5.79812 4.50049 8.83057C4.49098 10.8416 5.48052 12.705 6.59229 14.1704C7.7103 15.644 8.998 16.7756 9.68506 17.3335L10.0005 17.5894L10.3149 17.3345C11.0025 16.777 12.2907 15.6454 13.4087 14.1724C14.4508 12.7993 15.3857 11.0764 15.4907 9.21045L15.5005 8.83545C15.4995 5.79886 13.0337 3.33363 10.0005 3.3335Z" stroke="black"/>
</svg>
