<svg width="16" height="17" viewBox="0 0 16 17" fill="none" xmlns="http://www.w3.org/2000/svg">
<g clip-path="url(#clip0_1343_9419)">
<path d="M15.5939 12.1876C15.0977 11.6876 13.8958 10.9579 13.3127 10.6639C12.5533 10.2814 12.4908 10.2501 11.8939 10.6936C11.4958 10.9895 11.2311 11.2539 10.7652 11.1545C10.2992 11.0551 9.28674 10.4948 8.40018 9.61106C7.51362 8.72731 6.9208 7.68544 6.82112 7.22106C6.72143 6.75669 6.99018 6.49512 7.2833 6.09606C7.69643 5.53356 7.66518 5.43981 7.31205 4.68044C7.03674 4.08981 6.2858 2.89919 5.78393 2.40544C5.24705 1.87512 5.24705 1.96887 4.90112 2.11262C4.61947 2.2311 4.34928 2.37514 4.09393 2.54294C3.59393 2.87512 3.31643 3.15106 3.12237 3.56575C2.9283 3.98044 2.84112 4.95262 3.8433 6.77325C4.84549 8.59387 5.54862 9.52481 7.00393 10.9761C8.45924 12.4273 9.5783 13.2076 11.2142 14.1251C13.238 15.2586 14.0142 15.0376 14.4302 14.8439C14.8461 14.6501 15.1233 14.3751 15.4561 13.8751C15.6243 13.6202 15.7687 13.3503 15.8874 13.0689C16.0314 12.7242 16.1252 12.7242 15.5939 12.1876Z" stroke="black" stroke-miterlimit="10"/>
</g>
<defs>
<clipPath id="clip0_1343_9419">
<rect width="16" height="16" fill="white" transform="translate(0 0.5)"/>
</clipPath>
</defs>
</svg>
